<svg xmlns="http://www.w3.org/2000/svg" viewBox="-4749.48 -5020 35.036 35.036"><defs><clipPath id="a"><path d="M0-399.479h17.555v17.555H0z" transform="translate(0 399.479)" fill="none"/></clipPath></defs><g transform="translate(-4886 -5075)"><circle cx="17.518" cy="17.518" r="17.518" transform="translate(136.52 55)" fill="#4e8cff"/><g clip-path="url(#a)" transform="translate(145.13 64)"><path d="M17.555 8.778A8.778 8.778 0 0 0 8.777 0 8.778 8.778 0 0 0-.001 8.778a8.745 8.745 0 0 0 2.26 5.879v1.442c0 .8.492 1.457 1.1 1.457h5.83a.843.843 0 0 0 .183-.02 8.778 8.778 0 0 0 8.184-8.757" fill="#fff"/><path d="M3.161 8.921A9.292 9.292 0 0 1 9.541.033 8.763 8.763 0 0 0 8.778 0 8.774 8.774 0 0 0 0 8.778 9.508 9.508 0 0 0 2.224 14.7c.005 0 0 .009 0 .01-.311.352-1.924 2.849.021 2.849h2.25c-1.23-.022 1.263-2.107.269-3.494a8.225 8.225 0 0 1-1.6-5.141" fill="#eff4f9"/></g></g></svg>